<mxfile host="app.diagrams.net" modified="2023-07-04T16:13:12.756Z" agent="Mozilla/5.0 (Macintosh; Intel Mac OS X 10.15; rv:109.0) Gecko/20100101 Firefox/114.0" etag="oN8d-Ckb4kEH-VY8iYxw" version="21.2.9" type="device">
  <diagram id="QSuyjxM7UM31vO4ASxOD" name="Page-1">
    <mxGraphModel dx="2711" dy="928" grid="1" gridSize="10" guides="1" tooltips="1" connect="1" arrows="1" fold="1" page="1" pageScale="1" pageWidth="850" pageHeight="1100" background="#ffffff" math="0" shadow="0">
      <root>
        <mxCell id="0" />
        <mxCell id="1" parent="0" />
        <mxCell id="3Qtf_9oRKImHOX2U-JM6-33" value="" style="rounded=1;whiteSpace=wrap;html=1;fillColor=none;strokeColor=#788AA3;strokeWidth=2;fontColor=#46495D;" parent="1" vertex="1">
          <mxGeometry x="-780" y="110" width="80" height="280" as="geometry" />
        </mxCell>
        <mxCell id="3Qtf_9oRKImHOX2U-JM6-4" value="" style="shape=card;whiteSpace=wrap;html=1;fontSize=16;size=20;direction=west;strokeColor=#788AA3;strokeWidth=2;fillColor=#B2C9AB;fontColor=#46495D;" parent="1" vertex="1">
          <mxGeometry x="-760" y="225" width="40" height="50" as="geometry" />
        </mxCell>
        <mxCell id="3Qtf_9oRKImHOX2U-JM6-5" value="" style="shape=card;whiteSpace=wrap;html=1;fontSize=16;size=20;direction=west;strokeColor=#788AA3;strokeWidth=2;fillColor=#B2C9AB;fontColor=#46495D;" parent="1" vertex="1">
          <mxGeometry x="-760" y="135" width="40" height="50" as="geometry" />
        </mxCell>
        <mxCell id="3Qtf_9oRKImHOX2U-JM6-8" value="&lt;div style=&quot;font-size: 18px;&quot;&gt;Stream&lt;/div&gt;" style="text;html=1;strokeColor=none;fillColor=none;align=center;verticalAlign=middle;whiteSpace=wrap;rounded=0;labelBackgroundColor=none;fontSize=18;rotation=1;fontColor=#46495D;" parent="1" vertex="1">
          <mxGeometry x="-800" y="80" width="120" height="30" as="geometry" />
        </mxCell>
        <mxCell id="3Qtf_9oRKImHOX2U-JM6-9" value="" style="endArrow=classic;html=1;rounded=0;fontSize=16;strokeColor=#788AA3;strokeWidth=3;fontColor=#46495D;" parent="1" edge="1">
          <mxGeometry width="50" height="50" relative="1" as="geometry">
            <mxPoint x="-800" y="110" as="sourcePoint" />
            <mxPoint x="-800" y="390" as="targetPoint" />
          </mxGeometry>
        </mxCell>
        <mxCell id="3Qtf_9oRKImHOX2U-JM6-10" value="" style="shape=card;whiteSpace=wrap;html=1;fontSize=16;size=20;direction=west;dashed=1;strokeColor=#788AA3;strokeWidth=2;fillColor=#B2C9AB;fontColor=#46495D;" parent="1" vertex="1">
          <mxGeometry x="-760" y="310" width="40" height="50" as="geometry" />
        </mxCell>
        <mxCell id="3Qtf_9oRKImHOX2U-JM6-12" value="" style="shape=singleArrow;whiteSpace=wrap;html=1;fontSize=30;arrowWidth=0.52;arrowSize=0.5;fillColor=#d5e8d4;strokeColor=#82b366;strokeWidth=2;" parent="1" vertex="1">
          <mxGeometry x="-680" y="225" width="60" height="50" as="geometry" />
        </mxCell>
        <mxCell id="3Qtf_9oRKImHOX2U-JM6-22" value="Pipeline" style="text;html=1;strokeColor=none;fillColor=none;align=center;verticalAlign=middle;whiteSpace=wrap;rounded=0;labelBackgroundColor=none;fontSize=18;rotation=1;fontColor=#46495D;" parent="1" vertex="1">
          <mxGeometry x="-605" y="80" width="80" height="30" as="geometry" />
        </mxCell>
        <mxCell id="3Qtf_9oRKImHOX2U-JM6-25" value="" style="aspect=fixed;pointerEvents=1;shadow=0;dashed=0;html=1;strokeColor=#788AA3;labelPosition=center;verticalLabelPosition=bottom;verticalAlign=top;align=center;fillColor=#B2C9AB;shape=mxgraph.azure.code_file;fontSize=30;strokeWidth=1;fontColor=#46495D;" parent="1" vertex="1">
          <mxGeometry x="-123.5" y="135" width="47" height="50" as="geometry" />
        </mxCell>
        <mxCell id="3Qtf_9oRKImHOX2U-JM6-27" value="" style="aspect=fixed;pointerEvents=1;shadow=0;dashed=0;html=1;strokeColor=#6c8ebf;labelPosition=center;verticalLabelPosition=bottom;verticalAlign=top;align=center;fillColor=#dae8fc;shape=mxgraph.azure.code_file;fontSize=30;strokeWidth=1;" parent="1" vertex="1">
          <mxGeometry x="80" y="190" width="141" height="150" as="geometry" />
        </mxCell>
        <mxCell id="3Qtf_9oRKImHOX2U-JM6-28" value="&lt;div style=&quot;font-size: 18px;&quot;&gt;Elasticsearch&lt;/div&gt;" style="text;html=1;strokeColor=none;fillColor=none;align=center;verticalAlign=middle;whiteSpace=wrap;rounded=0;labelBackgroundColor=none;fontSize=18;rotation=1;fontColor=#46495D;" parent="1" vertex="1">
          <mxGeometry x="100.5" y="145" width="100" height="30" as="geometry" />
        </mxCell>
        <mxCell id="3Qtf_9oRKImHOX2U-JM6-29" value="&lt;div&gt;@context&lt;/div&gt;" style="text;html=1;strokeColor=none;fillColor=none;align=center;verticalAlign=middle;whiteSpace=wrap;rounded=0;labelBackgroundColor=none;fontSize=16;rotation=1;fontColor=#46495D;" parent="1" vertex="1">
          <mxGeometry x="-160" y="185" width="120" height="30" as="geometry" />
        </mxCell>
        <mxCell id="3Qtf_9oRKImHOX2U-JM6-36" value="" style="dashed=0;outlineConnect=0;html=1;align=center;labelPosition=center;verticalLabelPosition=bottom;verticalAlign=top;shape=mxgraph.weblogos.json_2;rounded=0;fontColor=#46495D;strokeColor=#788AA3;fillColor=#B2C9AB;" parent="1" vertex="1">
          <mxGeometry x="-308.40000000000003" y="162.4" width="80.4" height="25.200000000000003" as="geometry" />
        </mxCell>
        <mxCell id="3Qtf_9oRKImHOX2U-JM6-38" value="" style="shape=image;html=1;verticalAlign=top;verticalLabelPosition=bottom;labelBackgroundColor=none;imageAspect=0;aspect=fixed;image=https://cdn4.iconfinder.com/data/icons/evil-icons-user-interface/64/plus-128.png;rounded=0;fontSize=18;fontColor=#46495D;strokeColor=#788AA3;fillColor=#B2C9AB;imageBackground=none;" parent="1" vertex="1">
          <mxGeometry x="-210" y="145" width="60" height="60" as="geometry" />
        </mxCell>
        <mxCell id="cFClM1WQ0U9m2hekXylD-12" value="" style="rounded=1;whiteSpace=wrap;html=1;fillColor=none;strokeColor=#788AA3;strokeWidth=2;fontColor=#46495D;" vertex="1" parent="1">
          <mxGeometry x="-605" y="120" width="175" height="280" as="geometry" />
        </mxCell>
        <mxCell id="cFClM1WQ0U9m2hekXylD-13" value="" style="aspect=fixed;pointerEvents=1;shadow=0;dashed=0;html=1;strokeColor=#788AA3;labelPosition=center;verticalLabelPosition=bottom;verticalAlign=top;align=center;fillColor=#B2C9AB;shape=mxgraph.mscae.enterprise.filter;fontSize=30;fontColor=#46495D;" vertex="1" parent="1">
          <mxGeometry x="-585" y="142.6" width="50" height="45" as="geometry" />
        </mxCell>
        <mxCell id="cFClM1WQ0U9m2hekXylD-14" value="" style="outlineConnect=0;fontColor=#46495D;fillColor=#B2C9AB;strokeColor=#788AA3;dashed=0;verticalLabelPosition=bottom;verticalAlign=top;align=center;html=1;fontSize=12;fontStyle=0;aspect=fixed;pointerEvents=1;shape=mxgraph.aws4.change_set;" vertex="1" parent="1">
          <mxGeometry x="-585" y="215" width="50" height="60" as="geometry" />
        </mxCell>
        <mxCell id="cFClM1WQ0U9m2hekXylD-16" value="&lt;font style=&quot;font-size: 31px;&quot; color=&quot;#97d077&quot;&gt;...&lt;/font&gt;" style="rounded=0;whiteSpace=wrap;html=1;strokeColor=none;fillColor=none;fontColor=#00CC66;" vertex="1" parent="1">
          <mxGeometry x="-595" y="295" width="70" height="60" as="geometry" />
        </mxCell>
        <mxCell id="cFClM1WQ0U9m2hekXylD-17" value="" style="shape=singleArrow;whiteSpace=wrap;html=1;fontSize=30;arrowWidth=0.52;arrowSize=0.5;fillColor=#d5e8d4;strokeColor=#82b366;strokeWidth=2;" vertex="1" parent="1">
          <mxGeometry x="-410" y="150" width="60" height="50" as="geometry" />
        </mxCell>
        <mxCell id="cFClM1WQ0U9m2hekXylD-18" value="" style="shape=singleArrow;whiteSpace=wrap;html=1;fontSize=30;arrowWidth=0.52;arrowSize=0.08536585365853659;fillColor=#ffe6cc;strokeColor=#d79b00;strokeWidth=2;" vertex="1" parent="1">
          <mxGeometry x="-410" y="300" width="450" height="50" as="geometry" />
        </mxCell>
        <mxCell id="cFClM1WQ0U9m2hekXylD-19" value="" style="rounded=1;whiteSpace=wrap;html=1;fillColor=none;strokeColor=#788AA3;strokeWidth=2;fontColor=#46495D;" vertex="1" parent="1">
          <mxGeometry x="-330" y="120" width="300" height="110" as="geometry" />
        </mxCell>
        <mxCell id="cFClM1WQ0U9m2hekXylD-20" value="Reconciliating and indexing" style="text;html=1;strokeColor=none;fillColor=none;align=center;verticalAlign=middle;whiteSpace=wrap;rounded=0;labelBackgroundColor=none;fontSize=18;rotation=1;fontColor=#46495D;" vertex="1" parent="1">
          <mxGeometry x="-330" y="80" width="228.2" height="30" as="geometry" />
        </mxCell>
        <mxCell id="cFClM1WQ0U9m2hekXylD-21" value="" style="shape=singleArrow;whiteSpace=wrap;html=1;fontSize=30;arrowWidth=0.52;arrowSize=0.5;fillColor=#d5e8d4;strokeColor=#82b366;strokeWidth=2;" vertex="1" parent="1">
          <mxGeometry x="-10" y="150" width="60" height="50" as="geometry" />
        </mxCell>
        <mxCell id="cFClM1WQ0U9m2hekXylD-22" value="Deleting" style="text;html=1;strokeColor=none;fillColor=none;align=left;verticalAlign=middle;whiteSpace=wrap;rounded=0;labelBackgroundColor=none;fontSize=18;rotation=1;fontColor=#46495D;" vertex="1" parent="1">
          <mxGeometry x="-410" y="275" width="228.2" height="30" as="geometry" />
        </mxCell>
        <mxCell id="cFClM1WQ0U9m2hekXylD-23" value="" style="aspect=fixed;pointerEvents=1;shadow=0;dashed=0;html=1;strokeColor=#788AA3;labelPosition=center;verticalLabelPosition=bottom;verticalAlign=top;align=center;fillColor=#B2C9AB;shape=mxgraph.mscae.enterprise.filter;fontSize=30;fontColor=#46495D;" vertex="1" parent="1">
          <mxGeometry x="-500" y="142.6" width="50" height="45" as="geometry" />
        </mxCell>
        <mxCell id="cFClM1WQ0U9m2hekXylD-24" value="" style="outlineConnect=0;fontColor=#46495D;fillColor=#B2C9AB;strokeColor=#788AA3;dashed=0;verticalLabelPosition=bottom;verticalAlign=top;align=center;html=1;fontSize=12;fontStyle=0;aspect=fixed;pointerEvents=1;shape=mxgraph.aws4.change_set;" vertex="1" parent="1">
          <mxGeometry x="-500" y="215" width="50" height="60" as="geometry" />
        </mxCell>
      </root>
    </mxGraphModel>
  </diagram>
</mxfile>
